<svg width="72" height="26" viewBox="0 0 72 26" fill="none" xmlns="http://www.w3.org/2000/svg">
<rect width="71" height="26" transform="translate(0.5)" fill="white"/>
<path d="M25.7361 10.63C25.5628 10.63 25.4161 10.57 25.2961 10.45C25.1761 10.33 25.1161 10.1833 25.1161 10.01C25.1161 9.83667 25.1761 9.69 25.2961 9.57C25.4161 9.45 25.5628 9.39 25.7361 9.39C25.9028 9.39 26.0428 9.45 26.1561 9.57C26.2761 9.69 26.3361 9.83667 26.3361 10.01C26.3361 10.1833 26.2761 10.33 26.1561 10.45C26.0428 10.57 25.9028 10.63 25.7361 10.63ZM26.1761 11.52V17H25.2661V11.52H26.1761ZM30.397 11.42C31.0637 11.42 31.6037 11.6233 32.017 12.03C32.4304 12.43 32.637 13.01 32.637 13.77V17H31.737V13.9C31.737 13.3533 31.6004 12.9367 31.327 12.65C31.0537 12.3567 30.6804 12.21 30.207 12.21C29.727 12.21 29.3437 12.36 29.057 12.66C28.777 12.96 28.637 13.3967 28.637 13.97V17H27.727V11.52H28.637V12.3C28.817 12.02 29.0604 11.8033 29.367 11.65C29.6804 11.4967 30.0237 11.42 30.397 11.42ZM38.7295 17.09C38.3095 17.09 37.9329 17.02 37.5995 16.88C37.2662 16.7333 37.0029 16.5333 36.8095 16.28C36.6162 16.02 36.5095 15.7233 36.4895 15.39H37.4295C37.4562 15.6633 37.5829 15.8867 37.8095 16.06C38.0429 16.2333 38.3462 16.32 38.7195 16.32C39.0662 16.32 39.3395 16.2433 39.5395 16.09C39.7395 15.9367 39.8395 15.7433 39.8395 15.51C39.8395 15.27 39.7329 15.0933 39.5195 14.98C39.3062 14.86 38.9762 14.7433 38.5295 14.63C38.1229 14.5233 37.7895 14.4167 37.5295 14.31C37.2762 14.1967 37.0562 14.0333 36.8695 13.82C36.6895 13.6 36.5995 13.3133 36.5995 12.96C36.5995 12.68 36.6829 12.4233 36.8495 12.19C37.0162 11.9567 37.2529 11.7733 37.5595 11.64C37.8662 11.5 38.2162 11.43 38.6095 11.43C39.2162 11.43 39.7062 11.5833 40.0795 11.89C40.4529 12.1967 40.6529 12.6167 40.6795 13.15H39.7695C39.7495 12.8633 39.6329 12.6333 39.4195 12.46C39.2129 12.2867 38.9329 12.2 38.5795 12.2C38.2529 12.2 37.9929 12.27 37.7995 12.41C37.6062 12.55 37.5095 12.7333 37.5095 12.96C37.5095 13.14 37.5662 13.29 37.6795 13.41C37.7995 13.5233 37.9462 13.6167 38.1195 13.69C38.2995 13.7567 38.5462 13.8333 38.8595 13.92C39.2529 14.0267 39.5729 14.1333 39.8195 14.24C40.0662 14.34 40.2762 14.4933 40.4495 14.7C40.6295 14.9067 40.7229 15.1767 40.7295 15.51C40.7295 15.81 40.6462 16.08 40.4795 16.32C40.3129 16.56 40.0762 16.75 39.7695 16.89C39.4695 17.0233 39.1229 17.09 38.7295 17.09ZM43.1241 12.27V15.5C43.1241 15.7667 43.1808 15.9567 43.2941 16.07C43.4075 16.1767 43.6041 16.23 43.8841 16.23H44.5541V17H43.7341C43.2275 17 42.8475 16.8833 42.5941 16.65C42.3408 16.4167 42.2141 16.0333 42.2141 15.5V12.27H41.5041V11.52H42.2141V10.14H43.1241V11.52H44.5541V12.27H43.1241ZM48.0467 17.09C47.5334 17.09 47.0667 16.9733 46.6467 16.74C46.2334 16.5067 45.9067 16.1767 45.6667 15.75C45.4334 15.3167 45.3167 14.8167 45.3167 14.25C45.3167 13.69 45.4367 13.1967 45.6767 12.77C45.9234 12.3367 46.2567 12.0067 46.6767 11.78C47.0967 11.5467 47.5667 11.43 48.0867 11.43C48.6067 11.43 49.0767 11.5467 49.4967 11.78C49.9167 12.0067 50.2467 12.3333 50.4867 12.76C50.7334 13.1867 50.8567 13.6833 50.8567 14.25C50.8567 14.8167 50.7301 15.3167 50.4767 15.75C50.2301 16.1767 49.8934 16.5067 49.4667 16.74C49.0401 16.9733 48.5667 17.09 48.0467 17.09ZM48.0467 16.29C48.3734 16.29 48.6801 16.2133 48.9667 16.06C49.2534 15.9067 49.4834 15.6767 49.6567 15.37C49.8367 15.0633 49.9267 14.69 49.9267 14.25C49.9267 13.81 49.8401 13.4367 49.6667 13.13C49.4934 12.8233 49.2667 12.5967 48.9867 12.45C48.7067 12.2967 48.4034 12.22 48.0767 12.22C47.7434 12.22 47.4367 12.2967 47.1567 12.45C46.8834 12.5967 46.6634 12.8233 46.4967 13.13C46.3301 13.4367 46.2467 13.81 46.2467 14.25C46.2467 14.6967 46.3267 15.0733 46.4867 15.38C46.6534 15.6867 46.8734 15.9167 47.1467 16.07C47.4201 16.2167 47.7201 16.29 48.0467 16.29ZM51.7132 14.25C51.7132 13.6833 51.8265 13.19 52.0532 12.77C52.2799 12.3433 52.5932 12.0133 52.9932 11.78C53.3999 11.5467 53.8632 11.43 54.3832 11.43C55.0565 11.43 55.6099 11.5933 56.0432 11.92C56.4832 12.2467 56.7732 12.7 56.9132 13.28H55.9332C55.8399 12.9467 55.6565 12.6833 55.3832 12.49C55.1165 12.2967 54.7832 12.2 54.3832 12.2C53.8632 12.2 53.4432 12.38 53.1232 12.74C52.8032 13.0933 52.6432 13.5967 52.6432 14.25C52.6432 14.91 52.8032 15.42 53.1232 15.78C53.4432 16.14 53.8632 16.32 54.3832 16.32C54.7832 16.32 55.1165 16.2267 55.3832 16.04C55.6499 15.8533 55.8332 15.5867 55.9332 15.24H56.9132C56.7665 15.8 56.4732 16.25 56.0332 16.59C55.5932 16.9233 55.0432 17.09 54.3832 17.09C53.8632 17.09 53.3999 16.9733 52.9932 16.74C52.5932 16.5067 52.2799 16.1767 52.0532 15.75C51.8265 15.3233 51.7132 14.8233 51.7132 14.25ZM61.1874 17L59.0374 14.58V17H58.1274V9.6H59.0374V13.95L61.1474 11.52H62.4174L59.8374 14.25L62.4274 17H61.1874Z" fill="#78A962"/>
<circle cx="13.5" cy="13" r="5" fill="#78A962"/>
<path d="M15.5 12L12.984 15L11.5 13.2785" stroke="white" stroke-linecap="round"/>
</svg>
