<svg width="66" height="50" viewBox="0 0 66 50" fill="none" xmlns="http://www.w3.org/2000/svg">
<g clip-path="url(#clip0_6_146)">
<path d="M-1.41598e-05 48.5029V1.49692C0.361986 0.60892 1.21999 -0.00608008 2.21999 -0.00608008C2.27999 -0.00608008 2.33999 -0.00408008 2.39899 0.000919921H2.39099H63.727C63.784 -0.00408008 63.851 -0.00708008 63.918 -0.00708008C65.158 -0.00708008 66.163 0.99792 66.163 2.23792C66.163 2.30492 66.16 2.37192 66.154 2.43692L66.155 2.42892C66.155 11.9029 66.155 21.3779 66.155 30.8339C66.155 36.4749 66.155 42.1149 66.155 47.7559C66.163 47.8219 66.167 47.8989 66.167 47.9769C66.167 49.0759 65.276 49.9669 64.177 49.9669C64.147 49.9669 64.117 49.9659 64.087 49.9649H64.091H2.64499C2.54299 49.9789 2.42599 49.9879 2.30599 49.9879C1.28699 49.9879 0.407986 49.3869 0.00498584 48.5209L-0.00201416 48.5049L-1.41598e-05 48.5029ZM62.066 4.14392H4.12499V32.0919L4.76399 31.6539L15.991 23.6039C16.388 23.2059 16.936 22.9599 17.543 22.9599C18.15 22.9599 18.698 23.2059 19.095 23.6039L30.888 32.0559C32.713 33.3699 34.539 34.6849 36.364 35.9629C36.696 36.2189 37.117 36.3739 37.575 36.3739C38.476 36.3739 39.237 35.7759 39.482 34.9549L39.486 34.9409C39.537 34.7709 39.566 34.5759 39.566 34.3729C39.566 33.5999 39.141 32.9259 38.511 32.5729L38.501 32.5679C35.9577 30.7793 33.469 28.9843 31.035 27.1829L30.469 26.7629L30.798 26.5069L40.966 19.2049C41.363 18.8069 41.911 18.5609 42.518 18.5609C43.125 18.5609 43.673 18.8069 44.07 19.2049L61.412 31.6549L62.051 32.0749L62.066 4.14392Z" fill="#BDAE82"/>
<path d="M26.962 9.34597C29.987 9.34597 32.438 11.798 32.438 14.822C32.484 15.09 32.511 15.399 32.511 15.713C32.511 18.738 30.059 21.189 27.035 21.189C24.011 21.189 21.559 18.737 21.559 15.713C21.559 15.398 21.586 15.09 21.637 14.789L21.632 14.821C21.632 14.82 21.632 14.82 21.632 14.819C21.632 11.846 24.001 9.42597 26.955 9.34497H26.963L26.962 9.34597Z" fill="#CCBA8D"/>
</g>
<defs>
<clipPath id="clip0_6_146">
<rect width="66" height="50" fill="white"/>
</clipPath>
</defs>
</svg>
