<svg width="60" height="50" viewBox="0 0 60 50" fill="none" xmlns="http://www.w3.org/2000/svg">
<g clip-path="url(#clip0_6_144)">
<path d="M59.843 1.30696V48.781C59.465 49.535 58.698 50.043 57.812 50.043C57.748 50.043 57.685 50.04 57.622 50.035L57.63 50.036H2.194C2.128 50.044 2.051 50.048 1.973 50.048C0.876 50.048 -0.0130005 49.159 -0.0130005 48.062C-0.0130005 47.984 -0.00900049 47.907 -4.88944e-07 47.831L-0.00100049 47.84C-0.00100049 32.6133 -0.00100049 17.387 -0.00100049 2.16096C-0.00600049 2.10596 -0.0100005 2.04196 -0.0100005 1.97696C-0.0100005 0.879962 0.878999 -0.00903808 1.976 -0.00903808C2.047 -0.00903808 2.116 -0.00503808 2.185 0.00196192L2.176 0.000961917C20.666 0.000961917 39.1447 0.000961917 57.612 0.000961917C57.687 -0.00803808 57.774 -0.0140381 57.863 -0.0140381C58.75 -0.0140381 59.511 0.524962 59.837 1.29296L59.842 1.30696H59.843ZM22.544 24.983V30.575C22.545 30.941 22.596 31.295 22.69 31.631L22.683 31.603C23.038 32.503 23.901 33.128 24.909 33.128C25.419 33.128 25.892 32.968 26.28 32.695L26.272 32.7C29.6 30.784 32.892 28.85 36.185 26.899C36.865 26.531 37.318 25.823 37.318 25.009C37.318 24.195 36.864 23.487 36.196 23.124L36.185 23.118C32.892 21.097 29.513 19.163 26.133 17.212C25.78 16.992 25.351 16.861 24.892 16.861C23.583 16.861 22.523 17.922 22.523 19.23C22.523 19.28 22.525 19.33 22.528 19.379V19.372C22.65 21.236 22.545 23.118 22.545 24.982L22.544 24.983ZM9.443 6.55096V3.57196H3.572V6.55096H9.443ZM3.484 46.376H9.442V43.449H3.484V46.376ZM18.833 3.57096H13.066V6.53296H18.833V3.57096ZM22.456 3.57096V6.53296H28.24V3.48396L22.456 3.57096ZM37.613 6.55096V3.57196H31.846V6.53396L37.613 6.55096ZM47.038 3.57096H41.219V6.53296H47.038V3.57096ZM37.631 46.394V43.554H31.847V46.481L37.631 46.394ZM18.815 46.394V43.554H13.048V46.481L18.815 46.394ZM28.24 46.394V43.554H22.473V46.498L28.24 46.394ZM47.038 43.449H41.219V46.376H47.038V43.449ZM56.289 6.55096V3.48496H50.627V6.55096H56.289ZM56.289 43.449H50.627V46.393H56.306L56.289 43.449Z" fill="#BDAE82"/>
</g>
<defs>
<clipPath id="clip0_6_144">
<rect width="60" height="50" fill="white"/>
</clipPath>
</defs>
</svg>
