<svg width="45" height="45" viewBox="0 0 45 45" fill="none" xmlns="http://www.w3.org/2000/svg">
<path d="M22.8375 17.2125C23.95 17.2125 25.0376 17.5424 25.9626 18.1605C26.8876 18.7786 27.6086 19.6571 28.0343 20.6849C28.4601 21.7127 28.5715 22.8437 28.3544 23.9349C28.1374 25.026 27.6016 26.0283 26.815 26.815C26.0283 27.6016 25.026 28.1374 23.9349 28.3544C22.8437 28.5715 21.7127 28.4601 20.6849 28.0343C19.6571 27.6086 18.7786 26.8876 18.1605 25.9626C17.5424 25.0376 17.2125 23.95 17.2125 22.8375C17.2144 21.3462 17.8076 19.9166 18.8621 18.8621C19.9166 17.8076 21.3462 17.2144 22.8375 17.2125ZM22.8375 14.4C21.1687 14.4 19.5374 14.8949 18.1499 15.822C16.7623 16.7491 15.6809 18.0669 15.0423 19.6086C14.4037 21.1504 14.2366 22.8469 14.5621 24.4836C14.8877 26.1203 15.6913 27.6237 16.8713 28.8037C18.0513 29.9837 19.5547 30.7873 21.1914 31.1129C22.8281 31.4384 24.5246 31.2713 26.0664 30.6327C27.6081 29.9941 28.9259 28.9127 29.853 27.5251C30.7802 26.1376 31.275 24.5063 31.275 22.8375C31.275 20.5997 30.3861 18.4536 28.8037 16.8713C27.2214 15.2889 25.0753 14.4 22.8375 14.4Z" fill="white"/>
<path d="M7.58531 9.58078L9.57375 7.59094L14.5041 12.5213L12.5156 14.5097L7.58531 9.58078Z" fill="white"/>
<path d="M2.8125 21.1008H9.84375V23.9133H2.8125V21.1008Z" fill="white"/>
<path d="M7.58531 35.4333L12.5156 30.503L14.5041 32.4928L9.57375 37.4217L7.58531 35.4333Z" fill="white"/>
<path d="M21.0938 35.1633H23.9062V42.1945H21.0938V35.1633Z" fill="white"/>
<path d="M30.4973 32.4928L32.4858 30.503L37.4161 35.4333L35.4277 37.4217L30.4973 32.4928Z" fill="white"/>
<path d="M35.1562 21.1008H42.1875V23.9133H35.1562V21.1008Z" fill="white"/>
<path d="M30.4973 12.5213L35.4277 7.59094L37.4161 9.58078L32.4858 14.5097L30.4973 12.5213Z" fill="white"/>
<path d="M21.0938 2.81953H23.9062V9.85078H21.0938V2.81953Z" fill="white"/>
</svg>
