<?xml version="1.0" standalone="no"?>
<!DOCTYPE svg PUBLIC "-//W3C//DTD SVG 20010904//EN"
 "http://www.w3.org/TR/2001/REC-SVG-20010904/DTD/svg10.dtd">
<svg version="1.0" xmlns="http://www.w3.org/2000/svg"
 width="1280.000000pt" height="640.000000pt" viewBox="0 0 1280.000000 640.000000"
 preserveAspectRatio="xMidYMid meet">
<metadata>
Created by potrace 1.15, written by Peter Selinger 2001-2017
</metadata>
<g transform="translate(0.000000,640.000000) scale(0.100000,-0.100000)"
fill="#000000" stroke="none">
<path d="M8145 5213 c-22 -2 -186 -17 -365 -33 -179 -16 -613 -54 -965 -85
-676 -58 -737 -65 -782 -89 -43 -22 -100 -86 -123 -138 -17 -40 -21 -75 -27
-247 -3 -110 -10 -198 -15 -195 -4 3 -8 14 -8 24 0 10 -5 22 -11 26 -6 3 -61
1 -123 -6 -61 -7 -113 -13 -116 -12 -3 0 -12 24 -20 52 -9 30 -26 61 -40 72
l-25 21 -1080 -8 c-594 -4 -1159 -10 -1255 -15 l-175 -7 -45 47 c-25 26 -119
137 -208 247 -89 111 -178 215 -199 233 -36 32 -37 32 -107 25 -39 -3 -77 -12
-85 -20 -22 -22 -30 -146 -31 -496 l0 -337 -342 -7 c-189 -4 -377 -5 -418 -2
-41 3 -205 10 -365 16 -159 7 -347 15 -417 19 -69 4 -268 6 -442 4 l-316 -3
-17 -32 c-24 -42 -24 -186 -1 -239 14 -30 24 -39 60 -49 56 -15 633 -20 1228
-9 276 5 468 4 505 -2 32 -5 146 -13 253 -17 106 -5 195 -11 198 -13 2 -3 0
-17 -6 -32 -10 -28 -7 -59 12 -108 8 -23 17 -27 69 -33 33 -4 66 -14 74 -22
23 -23 81 -28 109 -10 21 14 25 27 31 95 l7 79 42 -9 c22 -5 52 -17 66 -26 18
-12 46 -17 99 -17 l75 0 16 -55 c19 -62 38 -101 54 -112 14 -10 98 -10 113 0
6 4 16 20 22 35 20 51 43 36 95 -65 25 -48 40 -64 62 -70 42 -11 1237 -55
2004 -74 316 -8 327 -6 363 70 14 30 30 57 36 60 5 3 57 -1 116 -10 59 -8 112
-13 119 -11 7 3 16 31 19 64 4 33 9 67 13 76 13 34 24 16 24 -38 0 -71 17
-110 70 -160 60 -57 79 -100 90 -207 17 -158 13 -287 -10 -354 -27 -79 -24
-105 18 -125 19 -8 38 -22 43 -30 24 -38 -2 -387 -47 -609 -31 -156 -120 -504
-172 -672 -28 -91 -36 -130 -28 -137 24 -18 73 -39 111 -45 54 -9 299 -78 465
-131 153 -48 265 -70 315 -61 44 9 95 51 95 79 0 22 11 65 50 192 34 116 127
493 149 605 20 106 50 318 72 508 11 99 12 103 41 118 55 28 468 44 613 23 39
-5 134 -16 213 -24 160 -15 185 -25 209 -83 13 -32 14 -43 3 -82 -27 -92 -14
-120 62 -141 25 -6 51 -25 79 -58 47 -55 141 -212 205 -346 41 -83 43 -93 33
-126 -16 -50 -4 -104 28 -129 20 -15 40 -20 89 -20 120 0 511 84 618 133 64
30 80 54 73 113 -4 36 -35 89 -174 296 -379 564 -534 812 -559 895 -14 45 -13
50 11 98 28 58 113 147 162 170 40 19 129 35 200 35 61 0 58 -7 69 172 l6 106
61 7 c34 4 70 14 79 22 24 21 128 29 159 12 16 -9 78 -15 189 -19 l165 -6 95
-43 c87 -40 104 -44 207 -51 92 -6 120 -12 150 -31 36 -22 49 -23 253 -26 118
-2 230 -6 248 -9 l32 -5 0 -129 c0 -136 5 -158 42 -204 23 -27 29 -29 135 -36
61 -4 115 -10 122 -14 6 -4 11 -20 11 -35 0 -39 22 -54 86 -59 61 -5 84 7 84
44 0 13 9 33 21 45 18 18 28 19 77 14 84 -10 118 -29 327 -179 207 -148 251
-174 267 -158 6 6 14 58 18 116 3 58 9 108 12 111 6 6 563 -245 603 -271 11
-8 32 -33 46 -56 32 -55 70 -64 87 -21 29 71 73 358 98 643 12 126 17 296 18
535 1 317 -1 354 -17 394 -29 70 -54 100 -92 107 -18 3 -41 14 -49 23 -20 22
-43 86 -51 146 -6 39 -13 50 -44 69 -20 13 -47 35 -60 50 -14 14 -32 26 -42
26 -10 0 -48 -25 -86 -56 -37 -30 -122 -96 -188 -147 -66 -50 -160 -126 -210
-167 l-90 -77 -705 8 c-388 4 -752 10 -810 13 -98 5 -106 4 -128 -17 l-24 -22
-468 0 c-422 0 -470 2 -482 16 -8 11 -36 19 -73 23 -33 3 -94 13 -135 21 -41
8 -92 17 -112 20 l-37 6 -3 57 -3 57 -42 3 c-41 3 -57 16 -31 24 23 8 -10 42
-68 73 -66 34 -68 37 -126 190 -25 68 -52 121 -70 138 -20 20 -28 39 -28 62 0
74 -21 133 -63 181 -22 26 -56 53 -74 60 -30 13 -136 16 -238 7z m-347 -326
c35 -19 72 -70 72 -100 0 -34 -29 -74 -67 -93 -36 -18 -75 -19 -858 -19 -892
0 -904 1 -946 53 -15 19 -19 35 -15 56 7 35 49 83 86 99 32 13 661 25 1250 23
405 -1 448 -3 478 -19z m-5168 -97 c41 -22 260 -305 260 -336 0 -21 -27 -24
-214 -24 -128 0 -186 4 -194 12 -7 7 -12 41 -12 84 0 70 1 72 35 98 34 26 55
74 55 127 0 43 30 60 70 39z m5028 -1596 c30 -6 52 -58 52 -124 0 -53 -17 -96
-56 -143 -27 -32 -32 -67 -10 -67 21 0 96 88 119 139 10 24 22 75 26 113 3 38
9 69 14 69 49 7 127 -55 147 -117 18 -53 -2 -94 -76 -163 l-65 -61 -265 0
-265 0 -45 94 c-24 51 -44 106 -44 122 0 46 35 93 87 116 69 30 280 43 381 22z"/>
</g>
</svg>
